<svg xmlns="http://www.w3.org/2000/svg" width="1080" height="1920" viewBox="0 0 1080 1920">
  <rect width="1080" height="1920" fill="#0b1220"/>
  <rect x="30" y="30" width="1020" height="1860" rx="55" fill="#0b1220" stroke="#3a4b68" stroke-width="6"/>
  <rect x="430" y="55" width="220" height="25" rx="12" fill="#22304a"/>
  <text x="70" y="155" fill="#e6eefc" font-family="DejaVu Sans, Arial" font-size="52" font-weight="700">Körningsdetaljer</text>
  
<rect x="70" y="230" width="940" height="190" rx="24" fill="#111a2b"/>
<text x="95" y="290" fill="#e6eefc" font-family="DejaVu Sans, Arial" font-size="34" font-weight="700">Rutt: Hallsberg → Mjölby</text>
<text x="95" y="350" fill="#9fb3d1" font-family="DejaVu Sans, Arial" font-size="28">Tåg: 120 km/h, 630 m, 1850 ton</text>
<rect x="70" y="470" width="940" height="510" rx="28" fill="#111a2b"/>
<text x="95" y="525" fill="#e6eefc" font-family="DejaVu Sans, Arial" font-size="34" font-weight="700">Full profil</text>
<polyline points="120,860 180,820 260,780 360,820 430,900 540,840 640,760 760,810 860,930 940,840" fill="none" stroke="#4da3ff" stroke-width="9" stroke-linecap="round" stroke-linejoin="round"/>
<rect x="70" y="1030" width="940" height="530" rx="28" fill="#111a2b"/>
<text x="95" y="1085" fill="#e6eefc" font-family="DejaVu Sans, Arial" font-size="34" font-weight="700">Kommande punkter</text>
<rect x="95" y="1150" width="890" height="86" rx="18" fill="#16233a"/>
<text x="125" y="1203" fill="#e6eefc" font-family="DejaVu Sans, Arial" font-size="28">Fall om 650 m</text>
<rect x="95" y="1270" width="890" height="86" rx="18" fill="#16233a"/>
<text x="125" y="1323" fill="#e6eefc" font-family="DejaVu Sans, Arial" font-size="28">Stigning om 2,1 km</text>
<rect x="95" y="1390" width="890" height="86" rx="18" fill="#16233a"/>
<text x="125" y="1443" fill="#e6eefc" font-family="DejaVu Sans, Arial" font-size="28">Driftplats Degerön om 6,4 km</text>

</svg>